OpenSim_Sub09_CSStiffKnee_RCS.mot
version=1
nRows=81
nColumns=11
inDegrees=no
endheader
time	Top_Thigh	Med_Thigh	Bot_Thigh	Top_Shank	2nd_Top_Shank	2nd_Bot_Shank	Bot_Shank	BNOx	BNOy	BNOZ
35.63000000	1937.17843076	2049.38226929	1810.25795372	1319.04472523	1463.58963158	1310.27773143	1310.54033984	18.04069065	-63.48932328	88.38343419
35.64000000	1934.04516974	2051.36962414	1812.18995296	1319.06583260	1463.38877384	1309.51001550	1310.73922789	18.30188530	-61.97977185	88.15413597
35.65000000	1929.76406630	2052.13338904	1812.88730495	1319.07849323	1463.27425251	1309.08739210	1311.27979441	19.68448371	-60.44368714	88.08340622
35.66000000	1924.66948016	2051.95945759	1812.60155766	1319.08322415	1463.25440669	1308.97429879	1312.07586101	21.89383066	-58.91159400	88.15593335
35.67000000	1919.09577104	2051.13372337	1811.58425908	1319.08054235	1463.33757546	1309.13517317	1313.04124934	24.63527092	-57.41401731	88.35640574
35.68000000	1913.37729866	2049.94207998	1810.08695721	1319.07096486	1463.53209789	1309.53445281	1314.08978101	27.61414928	-55.98148194	88.66951180
35.69000000	1907.84842274	2048.67042100	1808.36120002	1319.05500869	1463.84631308	1310.13657530	1315.13527767	30.53581051	-54.64451274	89.07993995
35.70000000	1902.84350302	2047.60464003	1806.65853551	1319.03319085	1464.28856011	1310.90597822	1316.09156092	33.10559939	-53.43363459	89.57237856
35.71000000	1898.69689920	2047.03063065	1805.23051167	1319.00602836	1464.86717806	1311.80709915	1316.87245241	35.02886071	-52.37937235	90.13151606
35.72000000	1895.70501963	2047.19374779	1804.29153578	1318.97339023	1465.58368079	1312.80277178	1317.40316598	36.05912559	-51.51013417	90.73958219
35.73000000	1893.88378814	2048.03974036	1803.78152226	1318.93035633	1466.38913945	1313.84397611	1317.69311109	36.30605248	-50.83868424	91.36063580
35.74000000	1893.12341460	2049.38007295	1803.51735698	1318.86986004	1467.21201665	1314.87637924	1317.78943394	36.03891716	-50.37077511	91.95059149
35.75000000	1893.31351589	2051.02557673	1803.31534547	1318.78482459	1467.98066834	1315.84562322	1317.73945870	35.52774830	-50.11212624	92.46532543
35.76000000	1894.34370888	2052.78708288	1802.99179329	1318.66817324	1468.62345047	1316.69735012	1317.59050957	35.04257458	-50.06845710	92.86071380
35.77000000	1896.10361044	2054.47542257	1802.36300598	1318.51282923	1469.06871899	1317.37720199	1317.38991075	34.85342467	-50.24548716	93.09263277
35.78000000	1898.48283744	2055.90142698	1801.24528910	1318.31171581	1469.24482987	1317.83082087	1317.18498641	35.23032724	-50.64893589	93.11695851
35.79000000	1901.37100677	2056.87592729	1799.45494818	1318.05775621	1469.08013904	1318.00384882	1317.02306076	36.44331099	-51.28452274	92.88956720
35.80000000	1904.64710351	2057.23358959	1796.83907326	1317.74677973	1468.51855786	1317.85698500	1316.94310943	38.65431662	-52.15568699	92.38674209
35.81000000	1908.11153722	2056.98523494	1793.47227100	1317.39609312	1467.61896168	1317.46220992	1316.92240703	41.22644727	-53.24901580	91.73558743
35.82000000	1911.52949968	2056.22063760	1789.53112167	1317.03262936	1466.49175307	1316.94138075	1316.91057361	43.16476475	-54.54354317	91.13080588
35.83000000	1914.66601653	2055.02994422	1785.19268654	1316.68336688	1465.24757765	1316.41658991	1316.85709876	43.47264196	-56.01826747	90.76741897
35.84000000	1917.28611344	2053.50330147	1780.63402689	1316.37528409	1463.99708106	1316.00992984	1316.71147206	41.15345180	-57.65218706	90.84044824
35.85000000	1919.15481606	2051.73085601	1776.03220401	1316.13535939	1462.85090892	1315.84349297	1316.42318312	35.21056719	-59.42430033	91.54491520
35.86000000	1920.03721928	2049.80275541	1771.56425848	1315.99056667	1461.91968367	1316.03933289	1315.94174066	24.64794862	-61.31360513	93.07572192
35.87000000	1919.79030291	2047.81034553	1767.37977157	1315.96185724	1461.28326561	1316.66799243	1315.24204350	9.24926851	-63.29843770	95.46922625
35.88000000	1918.54407023	2045.84853279	1763.54673292	1316.05228726	1460.93010955	1317.64695701	1314.37443369	-8.88499273	-65.35516834	98.29069349
35.89000000	1916.47900238	2044.01288191	1760.11804712	1316.26160431	1460.83177081	1318.86541414	1313.40320159	-27.22601257	-67.45980383	101.01829119
35.90000000	1913.77558048	2042.39895761	1757.14661878	1316.58955600	1460.95980470	1320.21255131	1312.39263754	-43.24496846	-69.58835099	103.13018691
35.91000000	1910.61428568	2041.10232461	1754.68535250	1317.03588992	1461.28576655	1321.57755601	1311.40703187	-54.41303787	-71.71681663	104.10454819
35.92000000	1907.17559910	2040.21854764	1752.78715288	1317.60035369	1461.78121168	1322.84961574	1310.51067494	-58.20139827	-73.82120754	103.41954259
35.93000000	1903.64000187	2039.84319139	1751.50492453	1318.28269489	1462.41769542	1323.91791798	1309.76785709	-52.08122711	-75.87753053	100.55333766
35.94000000	1900.18797512	2040.07182061	1750.89157203	1319.08266113	1463.16677309	1324.67165024	1309.24286866	-33.52370187	-77.86179242	94.98410094
35.95000000	1897	2041	1751	1320	1464	1325	1309	0	-79.75000000	86.19000000
35.96000000	1894.20949279	2042.63510408	1751.80755230	1321.02118813	1464.89993549	1324.82823637	1309.08111281	49.62899894	-81.50901984	73.91762735
35.97000000	1891.76161045	2044.63174658	1752.98932989	1322.07961825	1465.89315490	1324.22595489	1309.43835423	110.94360700	-83.06915758	58.98727545
35.98000000	1889.55444511	2046.55635100	1754.14487298	1323.09541209	1467.01723758	1323.29883271	1310.00144274	178.13443414	-84.35157858	42.48766172
35.99000000	1887.48608889	2047.97534087	1754.87372179	1323.98869141	1468.30976287	1322.15254696	1310.70009683	245.39209033	-85.27744825	25.50750358
36.00000000	1885.45463391	2048.45513970	1754.77541655	1324.67957794	1469.80831012	1320.89277481	1311.46403500	306.90718552	-85.76793197	9.13551846
36.01000000	1883.35879534	2047.56526408	1753.45250010	1325.08880983	1471.54970232	1319.62486559	1312.22320498	356.90472741	-85.74501727	-5.54567036
36.02000000	1881.14549308	2045.11454318	1750.73982997	1325.18481641	1473.51224297	1318.42880679	1312.92529065	392.27108895	-85.19430082	-17.92494530
36.03000000	1878.84335745	2041.31745757	1746.86605320	1325.01686684	1475.57504093	1317.34159574	1313.54803998	414.40384189	-84.20920125	-28.19042371
36.04000000	1876.48893366	2036.42778136	1742.09796137	1324.64206085	1477.60759658	1316.39606554	1314.07211306	425.13753660	-82.89358137	-36.60764103
36.05000000	1874.11876690	2030.69928867	1736.70234604	1324.11749818	1479.47941026	1315.62504926	1314.47817000	426.30672344	-81.35130401	-43.44213273
36.06000000	1871.76940240	2024.38575360	1730.94599879	1323.50027857	1481.05998234	1315.06138000	1314.74687091	419.74595277	-79.68623198	-48.95943427
36.07000000	1869.47738536	2017.74095029	1725.09571118	1322.84750175	1482.21881317	1314.73789085	1314.85887590	407.28977495	-78.00222810	-53.42508110
36.08000000	1867.27926099	2011.01865284	1719.41827481	1322.21626748	1482.82540312	1314.68741489	1314.79484506	390.77274035	-76.40315519	-57.10460869
36.09000000	1865.21157450	2004.47263536	1714.18048122	1321.66367548	1482.74925255	1314.94278521	1314.53543852	372.02939932	-74.99287608	-60.26355250
36.10000000	1863.31087110	1998.35667196	1709.64912201	1321.24682549	1481.85986182	1315.53683490	1314.06131638	352.89430223	-73.87525358	-63.16744799
36.11000000	1861.61369599	1992.92453678	1706.09098873	1321.02281726	1480.02673128	1316.50239704	1313.35313873	335.20199943	-73.15415051	-66.08183061
36.12000000	1860.15521558	1988.41837586	1703.75864813	1321.04513999	1477.13201052	1317.86766587	1312.39446148	320.70711322	-72.92708674	-69.25052518
36.13000000	1858.94996522	1984.90634533	1702.69182118	1321.31325871	1473.24711904	1319.59142442	1311.21216990	309.96830503	-73.19667264	-72.59250096
36.14000000	1857.99659840	1982.32266347	1702.76637976	1321.78505053	1468.58917666	1321.57902289	1309.86650437	302.62358326	-73.89245711	-75.77665275
36.15000000	1857.29336011	1980.59810322	1703.85398101	1322.41732277	1463.37905116	1323.73443700	1308.41856325	298.28727395	-74.94210964	-78.46544256
36.16000000	1856.83849533	1979.66343752	1705.82628203	1323.16688275	1457.83761028	1325.96164245	1306.92944491	296.57370310	-76.27329973	-80.32133242
36.17000000	1856.63024902	1979.44943932	1708.55493996	1323.99053779	1452.18572177	1328.16461495	1305.46024772	297.09719673	-77.81369685	-81.00678434
36.18000000	1856.66686617	1979.88688155	1711.91161192	1324.84509521	1446.64425341	1330.24733023	1304.07207004	299.47208087	-79.49097051	-80.18426034
36.19000000	1856.94659175	1980.90653715	1715.76795502	1325.68736233	1441.43407295	1332.11376398	1302.82601025	303.31268153	-81.23279020	-77.51622244
36.20000000	1857.46767073	1982.43917907	1719.99562640	1326.47414647	1436.77604813	1333.66789193	1301.78316671	308.23332472	-82.96682541	-72.66513266
36.21000000	1858.22834810	1984.41558024	1724.46628316	1327.16225495	1432.89104673	1334.81368978	1301.00463779	313.84833647	-84.62074563	-65.29345301
36.22000000	1859.22686883	1986.76651362	1729.05158244	1327.70849510	1429.99993649	1335.45513325	1300.55152187	319.77204279	-86.12222036	-55.06364552
36.23000000	1860.46147789	1989.42275213	1733.62318136	1328.06967423	1428.32358517	1335.49619805	1300.48491730	325.61876970	-87.39891908	-41.63817220
36.24000000	1861.93042026	1992.31506872	1738.05273704	1328.20259966	1428.08286054	1334.84085989	1300.86592246	331.00284322	-88.37851130	-24.67949506
36.25000000	1863.63194092	1995.37423634	1742.21190660	1328.06407871	1429.49863034	1333.39309449	1301.75563572	335.53858937	-88.98866649	-3.85007614
36.26000000	1865.55146286	1998.53094029	1745.98196394	1327.62115351	1432.72968554	1331.08690516	1303.19618346	338.89184905	-89.17050637	21.01512083
36.27000000	1867.57964668	2001.71521835	1749.31525704	1326.91650773	1437.47603076	1328.07821808	1305.08947724	341.10919048	-88.96457292	48.80623659
36.28000000	1869.56468016	2004.85681804	1752.19598945	1326.02672784	1443.23204123	1324.62242587	1307.27458393	342.40782497	-88.45596860	77.84199992
36.29000000	1871.35455077	2007.88548550	1754.60851500	1325.02856022	1449.49112222	1320.97539035	1309.59027395	343.00576872	-87.73000602	106.43844425
36.30000000	1872.79724595	2010.73096689	1756.53718751	1323.99875123	1455.74667901	1317.39297332	1311.87531774	343.12103797	-86.87199785	132.91160302
36.31000000	1873.74075315	2013.32300835	1757.96636081	1323.01404725	1461.49211689	1314.13103661	1313.96848573	342.97164893	-85.96725670	155.57750969
36.32000000	1874.03305983	2015.59135605	1758.88038873	1322.15119467	1466.22084113	1311.44544202	1315.70854833	342.77561784	-85.10109522	172.75219770
36.33000000	1873.55253616	2017.46985237	1759.27324983	1321.47758003	1469.49145039	1309.56111908	1316.95413395	342.72978407	-84.35028541	182.99487920
36.34000000	1872.40209960	2018.92261342	1759.21005562	1320.99141489	1471.34436323	1308.47438830	1317.71063381	342.87447689	-83.72847857	186.66200914
36.35000000	1870.78531041	2019.92732412	1758.78779955	1320.65990641	1472.03595130	1308.07910700	1318.04921865	343.17987731	-83.22103515	184.91557200
36.36000000	1868.90620354	2020.46173337	1758.10362548	1320.45011547	1471.82360491	1308.26864914	1318.04136950	343.61583542	-82.81318213	178.92135191
36.37000000	1866.96881396	2020.50359007	1757.25467727	1320.32910296	1470.96471434	1308.93638873	1317.75856738	344.15220131	-82.49014650	169.84513302
36.38000000	1865.17717666	2020.03064313	1756.33809878	1320.26392978	1469.71666989	1309.97569972	1317.27229333	344.75882509	-82.23715525	158.85269946
36.39000000	1863.73532658	2019.02064146	1755.45103386	1320.22165682	1468.33686187	1311.27995612	1316.65402838	345.40555686	-82.03943536	147.10983537
36.40000000	1862.84729870	2017.45133395	1754.69062637	1320.16934498	1467.08268057	1312.74253190	1315.97525354	346.06224671	-81.88221384	135.78232489
36.41000000	1862.71712799	2015.30046953	1754.15402017	1320.07405514	1466.21151629	1314.25680105	1315.30744985	346.69874475	-81.75071765	126.03595216
36.42000000	1863.54090196	2012.55243631	1753.93462622	1319.90437698	1465.97244231	1315.71778981	1314.72034087	347.28604316	-81.63049823	119.00053071
36.43000000	1865.33191675	2009.34432469	1754.03999918	1319.66406211	1466.42324042	1317.05852666	1314.24322876	347.82140180	-81.51456866	114.97854977
